<svg width="43" height="43" viewBox="0 0 43 43" fill="none" xmlns="http://www.w3.org/2000/svg">
<path d="M42.4757 21.6263C42.4757 33.1418 33.1497 42.4761 21.6466 42.4761C10.1435 42.4761 0.817515 33.1418 0.817515 21.6263C0.817515 10.1108 10.1435 0.7765 21.6466 0.7765C33.1497 0.7765 42.4757 10.1108 42.4757 21.6263Z" fill="#28A8E8" stroke="black" stroke-width="1.04812"/>
<path d="M32.6374 22.3676C33.0467 21.9583 33.0467 21.2946 32.6374 20.8853L25.9672 14.2152C25.5579 13.8058 24.8943 13.8058 24.485 14.2152C24.0756 14.6245 24.0756 15.2881 24.485 15.6974L30.414 21.6265L24.485 27.5555C24.0756 27.9648 24.0756 28.6285 24.485 29.0378C24.8943 29.4471 25.5579 29.4471 25.9672 29.0378L32.6374 22.3676ZM11.3972 22.6746L31.8963 22.6746V20.5783L11.3972 20.5783V22.6746Z" fill="black"/>
</svg>
