<svg width="40" height="40" viewBox="0 0 40 40" fill="none" xmlns="http://www.w3.org/2000/svg">
<g clip-path="url(#clip0_182_138)">
<path d="M0 19.2C0 10.149 0 5.62355 2.81177 2.81177C5.62355 0 10.149 0 19.2 0H20.8C29.851 0 34.3764 0 37.1882 2.81177C40 5.62355 40 10.149 40 19.2V20.8C40 29.851 40 34.3764 37.1882 37.1882C34.3764 40 29.851 40 20.8 40H19.2C10.149 40 5.62355 40 2.81177 37.1882C0 34.3764 0 29.851 0 20.8V19.2Z" fill="#0077FF"/>
<path d="M21.2832 28.817C12.1666 28.817 6.96667 22.567 6.75 12.167H11.3167C11.4667 19.8003 14.8332 23.0337 17.4999 23.7003V12.167H21.8001V18.7503C24.4334 18.467 27.1997 15.467 28.1331 12.167H32.4332C31.7165 16.2337 28.7165 19.2337 26.5832 20.467C28.7165 21.467 32.1333 24.0837 33.4333 28.817H28.6998C27.6832 25.6503 25.1501 23.2003 21.8001 22.867V28.817H21.2832Z" fill="white"/>
</g>
<defs>
<clipPath id="clip0_182_138">
<rect width="40" height="40" fill="white"/>
</clipPath>
</defs>
</svg>
